<mxfile host="app.diagrams.net" modified="2022-05-22T13:32:49.995Z" agent="5.0 (Windows NT 10.0; Win64; x64) AppleWebKit/537.36 (KHTML, like Gecko) Chrome/101.0.4951.67 Safari/537.36" etag="1Y9ZU48EnjkoyOl16S1w" version="17.5.0" type="github">
  <diagram id="ZTD5AlD4Z6yrbaF1aX5O" name="第 1 页">
    <mxGraphModel dx="981" dy="526" grid="1" gridSize="10" guides="1" tooltips="1" connect="1" arrows="1" fold="1" page="1" pageScale="1" pageWidth="827" pageHeight="1169" math="0" shadow="0">
      <root>
        <mxCell id="0" />
        <mxCell id="1" parent="0" />
        <mxCell id="px7W5Aw0a_3d5WCH5GeK-6" style="edgeStyle=none;rounded=1;orthogonalLoop=1;jettySize=auto;html=1;exitX=1;exitY=0.5;exitDx=0;exitDy=0;entryX=0;entryY=0.5;entryDx=0;entryDy=0;sketch=1;curved=1;" edge="1" parent="1" source="px7W5Aw0a_3d5WCH5GeK-1" target="px7W5Aw0a_3d5WCH5GeK-2">
          <mxGeometry relative="1" as="geometry" />
        </mxCell>
        <mxCell id="px7W5Aw0a_3d5WCH5GeK-7" style="edgeStyle=none;rounded=1;orthogonalLoop=1;jettySize=auto;html=1;exitX=1;exitY=0.5;exitDx=0;exitDy=0;entryX=0;entryY=0.5;entryDx=0;entryDy=0;sketch=1;curved=1;" edge="1" parent="1" source="px7W5Aw0a_3d5WCH5GeK-1" target="px7W5Aw0a_3d5WCH5GeK-3">
          <mxGeometry relative="1" as="geometry" />
        </mxCell>
        <mxCell id="px7W5Aw0a_3d5WCH5GeK-8" style="edgeStyle=none;rounded=1;orthogonalLoop=1;jettySize=auto;html=1;exitX=1;exitY=0.5;exitDx=0;exitDy=0;entryX=0;entryY=0.5;entryDx=0;entryDy=0;sketch=1;curved=1;" edge="1" parent="1" source="px7W5Aw0a_3d5WCH5GeK-1" target="px7W5Aw0a_3d5WCH5GeK-4">
          <mxGeometry relative="1" as="geometry" />
        </mxCell>
        <mxCell id="px7W5Aw0a_3d5WCH5GeK-1" value="镜像" style="rounded=1;whiteSpace=wrap;html=1;sketch=1;" vertex="1" parent="1">
          <mxGeometry x="190" y="215" width="120" height="50" as="geometry" />
        </mxCell>
        <mxCell id="px7W5Aw0a_3d5WCH5GeK-28" style="edgeStyle=none;rounded=1;orthogonalLoop=1;jettySize=auto;html=1;exitX=1;exitY=0.5;exitDx=0;exitDy=0;sketch=1;curved=1;" edge="1" parent="1" source="px7W5Aw0a_3d5WCH5GeK-2">
          <mxGeometry relative="1" as="geometry">
            <mxPoint x="520" y="169.8620689655172" as="targetPoint" />
          </mxGeometry>
        </mxCell>
        <mxCell id="px7W5Aw0a_3d5WCH5GeK-2" value="容器1" style="rounded=1;whiteSpace=wrap;html=1;sketch=1;" vertex="1" parent="1">
          <mxGeometry x="370" y="150" width="120" height="40" as="geometry" />
        </mxCell>
        <mxCell id="px7W5Aw0a_3d5WCH5GeK-30" style="edgeStyle=none;rounded=1;orthogonalLoop=1;jettySize=auto;html=1;exitX=1;exitY=0.5;exitDx=0;exitDy=0;sketch=1;curved=1;" edge="1" parent="1" source="px7W5Aw0a_3d5WCH5GeK-3">
          <mxGeometry relative="1" as="geometry">
            <mxPoint x="520" y="240.20689655172418" as="targetPoint" />
          </mxGeometry>
        </mxCell>
        <mxCell id="px7W5Aw0a_3d5WCH5GeK-3" value="容器2" style="rounded=1;whiteSpace=wrap;html=1;sketch=1;" vertex="1" parent="1">
          <mxGeometry x="370" y="220" width="120" height="40" as="geometry" />
        </mxCell>
        <mxCell id="px7W5Aw0a_3d5WCH5GeK-31" style="edgeStyle=none;rounded=1;orthogonalLoop=1;jettySize=auto;html=1;exitX=1;exitY=0.5;exitDx=0;exitDy=0;sketch=1;curved=1;" edge="1" parent="1" source="px7W5Aw0a_3d5WCH5GeK-4">
          <mxGeometry relative="1" as="geometry">
            <mxPoint x="520" y="309.8620689655173" as="targetPoint" />
          </mxGeometry>
        </mxCell>
        <mxCell id="px7W5Aw0a_3d5WCH5GeK-4" value="容器n" style="rounded=1;whiteSpace=wrap;html=1;sketch=1;" vertex="1" parent="1">
          <mxGeometry x="370" y="290" width="120" height="40" as="geometry" />
        </mxCell>
        <mxCell id="px7W5Aw0a_3d5WCH5GeK-9" value="&lt;b&gt;...&lt;/b&gt;" style="text;html=1;align=center;verticalAlign=middle;resizable=0;points=[];autosize=1;strokeColor=none;fillColor=none;sketch=1;rounded=1;" vertex="1" parent="1">
          <mxGeometry x="415" y="265" width="30" height="20" as="geometry" />
        </mxCell>
        <mxCell id="px7W5Aw0a_3d5WCH5GeK-17" value="" style="group;sketch=1;rounded=1;" vertex="1" connectable="0" parent="1">
          <mxGeometry x="500" y="153" width="70" height="50" as="geometry" />
        </mxCell>
        <mxCell id="px7W5Aw0a_3d5WCH5GeK-15" value="" style="shape=image;html=1;verticalAlign=top;verticalLabelPosition=bottom;imageAspect=0;aspect=fixed;image=https://cdn1.iconfinder.com/data/icons/100-basic-for-user-interface/32/29-Screen-128.png;sketch=1;rounded=1;" vertex="1" parent="px7W5Aw0a_3d5WCH5GeK-17">
          <mxGeometry x="20" width="30" height="30" as="geometry" />
        </mxCell>
        <mxCell id="px7W5Aw0a_3d5WCH5GeK-16" value="flask 应用" style="text;html=1;align=center;verticalAlign=middle;resizable=0;points=[];autosize=1;strokeColor=none;fillColor=none;sketch=1;rounded=1;" vertex="1" parent="px7W5Aw0a_3d5WCH5GeK-17">
          <mxGeometry y="30" width="70" height="20" as="geometry" />
        </mxCell>
        <mxCell id="px7W5Aw0a_3d5WCH5GeK-21" value="" style="group;sketch=1;rounded=1;" vertex="1" connectable="0" parent="1">
          <mxGeometry x="500" y="220" width="70" height="50" as="geometry" />
        </mxCell>
        <mxCell id="px7W5Aw0a_3d5WCH5GeK-22" value="" style="shape=image;html=1;verticalAlign=top;verticalLabelPosition=bottom;imageAspect=0;aspect=fixed;image=https://cdn1.iconfinder.com/data/icons/100-basic-for-user-interface/32/29-Screen-128.png;sketch=1;rounded=1;" vertex="1" parent="px7W5Aw0a_3d5WCH5GeK-21">
          <mxGeometry x="20" width="30" height="30" as="geometry" />
        </mxCell>
        <mxCell id="px7W5Aw0a_3d5WCH5GeK-23" value="php 应用" style="text;html=1;align=center;verticalAlign=middle;resizable=0;points=[];autosize=1;strokeColor=none;fillColor=none;sketch=1;rounded=1;" vertex="1" parent="px7W5Aw0a_3d5WCH5GeK-21">
          <mxGeometry x="5" y="30" width="60" height="20" as="geometry" />
        </mxCell>
        <mxCell id="px7W5Aw0a_3d5WCH5GeK-24" value="" style="group;sketch=1;rounded=1;" vertex="1" connectable="0" parent="1">
          <mxGeometry x="500" y="294" width="70" height="50" as="geometry" />
        </mxCell>
        <mxCell id="px7W5Aw0a_3d5WCH5GeK-25" value="" style="shape=image;html=1;verticalAlign=top;verticalLabelPosition=bottom;imageAspect=0;aspect=fixed;image=https://cdn1.iconfinder.com/data/icons/100-basic-for-user-interface/32/29-Screen-128.png;sketch=1;rounded=1;" vertex="1" parent="px7W5Aw0a_3d5WCH5GeK-24">
          <mxGeometry x="20" width="30" height="30" as="geometry" />
        </mxCell>
        <mxCell id="px7W5Aw0a_3d5WCH5GeK-26" value="java 应用" style="text;html=1;align=center;verticalAlign=middle;resizable=0;points=[];autosize=1;strokeColor=none;fillColor=none;sketch=1;rounded=1;" vertex="1" parent="px7W5Aw0a_3d5WCH5GeK-24">
          <mxGeometry x="5" y="30" width="60" height="20" as="geometry" />
        </mxCell>
      </root>
    </mxGraphModel>
  </diagram>
</mxfile>
